<mxfile host="app.diagrams.net" modified="2023-09-15T06:27:24.843Z" agent="Mozilla/5.0 (Windows NT 10.0; Win64; x64) AppleWebKit/537.36 (KHTML, like Gecko) Chrome/116.0.0.0 Safari/537.36" etag="yo9bLokcwF1kxQegRMch" version="21.7.5" type="device" pages="4">
  <diagram id="C5RBs43oDa-KdzZeNtuy" name="Page-1">
    <mxGraphModel dx="1518" dy="628" grid="1" gridSize="10" guides="1" tooltips="1" connect="1" arrows="1" fold="1" page="1" pageScale="1" pageWidth="827" pageHeight="1169" math="0" shadow="0">
      <root>
        <mxCell id="WIyWlLk6GJQsqaUBKTNV-0" />
        <mxCell id="WIyWlLk6GJQsqaUBKTNV-1" parent="WIyWlLk6GJQsqaUBKTNV-0" />
        <mxCell id="WIyWlLk6GJQsqaUBKTNV-2" value="" style="rounded=0;html=1;jettySize=auto;orthogonalLoop=1;fontSize=11;endArrow=block;endFill=0;endSize=8;strokeWidth=1;shadow=0;labelBackgroundColor=none;edgeStyle=orthogonalEdgeStyle;" parent="WIyWlLk6GJQsqaUBKTNV-1" source="WIyWlLk6GJQsqaUBKTNV-3" target="WIyWlLk6GJQsqaUBKTNV-6" edge="1">
          <mxGeometry relative="1" as="geometry" />
        </mxCell>
        <mxCell id="WIyWlLk6GJQsqaUBKTNV-3" value="Login" style="rounded=1;whiteSpace=wrap;html=1;fontSize=12;glass=0;strokeWidth=1;shadow=0;" parent="WIyWlLk6GJQsqaUBKTNV-1" vertex="1">
          <mxGeometry x="170" y="220" width="120" height="40" as="geometry" />
        </mxCell>
        <mxCell id="WIyWlLk6GJQsqaUBKTNV-4" value="Yes" style="rounded=0;html=1;jettySize=auto;orthogonalLoop=1;fontSize=11;endArrow=block;endFill=0;endSize=8;strokeWidth=1;shadow=0;labelBackgroundColor=none;edgeStyle=orthogonalEdgeStyle;entryX=0.5;entryY=0;entryDx=0;entryDy=0;" parent="WIyWlLk6GJQsqaUBKTNV-1" source="WIyWlLk6GJQsqaUBKTNV-6" target="iEe_-jjcxECdaYQ-cfXd-62" edge="1">
          <mxGeometry y="20" relative="1" as="geometry">
            <mxPoint as="offset" />
            <mxPoint x="230" y="460" as="targetPoint" />
          </mxGeometry>
        </mxCell>
        <mxCell id="WIyWlLk6GJQsqaUBKTNV-5" value="No" style="edgeStyle=orthogonalEdgeStyle;rounded=0;html=1;jettySize=auto;orthogonalLoop=1;fontSize=11;endArrow=block;endFill=0;endSize=8;strokeWidth=1;shadow=0;labelBackgroundColor=none;entryX=1;entryY=0.5;entryDx=0;entryDy=0;exitX=1;exitY=0.5;exitDx=0;exitDy=0;" parent="WIyWlLk6GJQsqaUBKTNV-1" source="WIyWlLk6GJQsqaUBKTNV-6" target="WIyWlLk6GJQsqaUBKTNV-3" edge="1">
          <mxGeometry y="10" relative="1" as="geometry">
            <mxPoint as="offset" />
            <mxPoint x="414" y="360" as="targetPoint" />
            <Array as="points">
              <mxPoint x="310" y="365" />
              <mxPoint x="310" y="240" />
            </Array>
          </mxGeometry>
        </mxCell>
        <mxCell id="WIyWlLk6GJQsqaUBKTNV-6" value="Username &lt;br&gt;and password are &lt;br&gt;correct?" style="rhombus;whiteSpace=wrap;html=1;shadow=0;fontFamily=Helvetica;fontSize=12;align=center;strokeWidth=1;spacing=6;spacingTop=-4;" parent="WIyWlLk6GJQsqaUBKTNV-1" vertex="1">
          <mxGeometry x="165" y="320" width="130" height="90" as="geometry" />
        </mxCell>
        <mxCell id="WIyWlLk6GJQsqaUBKTNV-9" value="" style="edgeStyle=orthogonalEdgeStyle;rounded=0;html=1;jettySize=auto;orthogonalLoop=1;fontSize=11;endArrow=block;endFill=0;endSize=8;strokeWidth=1;shadow=0;labelBackgroundColor=none;exitX=1;exitY=0.25;exitDx=0;exitDy=0;entryX=0;entryY=0.5;entryDx=0;entryDy=0;" parent="WIyWlLk6GJQsqaUBKTNV-1" source="iEe_-jjcxECdaYQ-cfXd-62" target="iEe_-jjcxECdaYQ-cfXd-118" edge="1">
          <mxGeometry y="10" relative="1" as="geometry">
            <mxPoint as="offset" />
            <mxPoint x="280" y="500" as="sourcePoint" />
            <mxPoint x="450" y="340" as="targetPoint" />
            <Array as="points">
              <mxPoint x="410" y="476" />
              <mxPoint x="410" y="340" />
            </Array>
          </mxGeometry>
        </mxCell>
        <mxCell id="iEe_-jjcxECdaYQ-cfXd-58" value="Start" style="ellipse;whiteSpace=wrap;html=1;aspect=fixed;" parent="WIyWlLk6GJQsqaUBKTNV-1" vertex="1">
          <mxGeometry x="190" y="60" width="80" height="80" as="geometry" />
        </mxCell>
        <mxCell id="iEe_-jjcxECdaYQ-cfXd-59" value="" style="rounded=0;html=1;jettySize=auto;orthogonalLoop=1;fontSize=11;endArrow=block;endFill=0;endSize=8;strokeWidth=1;shadow=0;labelBackgroundColor=none;edgeStyle=orthogonalEdgeStyle;exitX=0.5;exitY=1;exitDx=0;exitDy=0;entryX=0.5;entryY=0;entryDx=0;entryDy=0;" parent="WIyWlLk6GJQsqaUBKTNV-1" source="iEe_-jjcxECdaYQ-cfXd-58" target="WIyWlLk6GJQsqaUBKTNV-3" edge="1">
          <mxGeometry relative="1" as="geometry">
            <mxPoint x="240" y="270" as="sourcePoint" />
            <mxPoint x="240" y="350" as="targetPoint" />
          </mxGeometry>
        </mxCell>
        <mxCell id="iEe_-jjcxECdaYQ-cfXd-62" value="Main Menu&lt;br&gt;1. Manage Doctor Information&lt;br&gt;2. Insert Dengue Fever Information&lt;br&gt;3. Manage Dengue Cases&lt;br&gt;4. Logout" style="shape=parallelogram;perimeter=parallelogramPerimeter;whiteSpace=wrap;html=1;fixedSize=1;" parent="WIyWlLk6GJQsqaUBKTNV-1" vertex="1">
          <mxGeometry x="122.5" y="450" width="215" height="100" as="geometry" />
        </mxCell>
        <mxCell id="iEe_-jjcxECdaYQ-cfXd-66" value="" style="edgeStyle=orthogonalEdgeStyle;rounded=0;html=1;jettySize=auto;orthogonalLoop=1;fontSize=11;endArrow=block;endFill=0;endSize=8;strokeWidth=1;shadow=0;labelBackgroundColor=none;exitX=1;exitY=0.5;exitDx=0;exitDy=0;entryX=0;entryY=0.5;entryDx=0;entryDy=0;" parent="WIyWlLk6GJQsqaUBKTNV-1" source="iEe_-jjcxECdaYQ-cfXd-62" target="iEe_-jjcxECdaYQ-cfXd-119" edge="1">
          <mxGeometry y="10" relative="1" as="geometry">
            <mxPoint as="offset" />
            <mxPoint x="294" y="460" as="sourcePoint" />
            <mxPoint x="450" y="500" as="targetPoint" />
          </mxGeometry>
        </mxCell>
        <mxCell id="iEe_-jjcxECdaYQ-cfXd-69" value="" style="edgeStyle=orthogonalEdgeStyle;rounded=0;html=1;jettySize=auto;orthogonalLoop=1;fontSize=11;endArrow=block;endFill=0;endSize=8;strokeWidth=1;shadow=0;labelBackgroundColor=none;exitX=0.25;exitY=1;exitDx=0;exitDy=0;entryX=0.5;entryY=0;entryDx=0;entryDy=0;" parent="WIyWlLk6GJQsqaUBKTNV-1" source="iEe_-jjcxECdaYQ-cfXd-62" target="iEe_-jjcxECdaYQ-cfXd-121" edge="1">
          <mxGeometry y="10" relative="1" as="geometry">
            <mxPoint as="offset" />
            <mxPoint x="294" y="560" as="sourcePoint" />
            <mxPoint x="195" y="610" as="targetPoint" />
          </mxGeometry>
        </mxCell>
        <mxCell id="iEe_-jjcxECdaYQ-cfXd-71" value="Want to logout?" style="rhombus;whiteSpace=wrap;html=1;shadow=0;fontFamily=Helvetica;fontSize=12;align=center;strokeWidth=1;spacing=6;spacingTop=-4;" parent="WIyWlLk6GJQsqaUBKTNV-1" vertex="1">
          <mxGeometry y="640" width="130" height="90" as="geometry" />
        </mxCell>
        <mxCell id="iEe_-jjcxECdaYQ-cfXd-72" value="" style="edgeStyle=orthogonalEdgeStyle;rounded=0;html=1;jettySize=auto;orthogonalLoop=1;fontSize=11;endArrow=block;endFill=0;endSize=8;strokeWidth=1;shadow=0;labelBackgroundColor=none;exitX=0.5;exitY=1;exitDx=0;exitDy=0;entryX=1;entryY=0.5;entryDx=0;entryDy=0;" parent="WIyWlLk6GJQsqaUBKTNV-1" source="iEe_-jjcxECdaYQ-cfXd-121" target="iEe_-jjcxECdaYQ-cfXd-71" edge="1">
          <mxGeometry y="10" relative="1" as="geometry">
            <mxPoint as="offset" />
            <mxPoint x="195" y="660" as="sourcePoint" />
            <mxPoint x="160" y="800" as="targetPoint" />
            <Array as="points">
              <mxPoint x="177" y="685" />
            </Array>
          </mxGeometry>
        </mxCell>
        <mxCell id="iEe_-jjcxECdaYQ-cfXd-76" value="" style="edgeStyle=orthogonalEdgeStyle;rounded=0;html=1;jettySize=auto;orthogonalLoop=1;fontSize=11;endArrow=block;endFill=0;endSize=8;strokeWidth=1;shadow=0;labelBackgroundColor=none;exitX=0.5;exitY=0;exitDx=0;exitDy=0;entryX=0;entryY=0.5;entryDx=0;entryDy=0;" parent="WIyWlLk6GJQsqaUBKTNV-1" source="iEe_-jjcxECdaYQ-cfXd-71" target="iEe_-jjcxECdaYQ-cfXd-62" edge="1">
          <mxGeometry y="10" relative="1" as="geometry">
            <mxPoint as="offset" />
            <mxPoint x="-40" y="685" as="sourcePoint" />
            <mxPoint x="92.5" y="500" as="targetPoint" />
            <Array as="points">
              <mxPoint x="65" y="500" />
            </Array>
          </mxGeometry>
        </mxCell>
        <mxCell id="iEe_-jjcxECdaYQ-cfXd-78" value="No" style="edgeLabel;html=1;align=center;verticalAlign=middle;resizable=0;points=[];" parent="iEe_-jjcxECdaYQ-cfXd-76" vertex="1" connectable="0">
          <mxGeometry x="-0.405" y="-5" relative="1" as="geometry">
            <mxPoint x="10" as="offset" />
          </mxGeometry>
        </mxCell>
        <mxCell id="iEe_-jjcxECdaYQ-cfXd-81" value="End" style="ellipse;whiteSpace=wrap;html=1;aspect=fixed;" parent="WIyWlLk6GJQsqaUBKTNV-1" vertex="1">
          <mxGeometry x="25" y="790" width="80" height="80" as="geometry" />
        </mxCell>
        <mxCell id="iEe_-jjcxECdaYQ-cfXd-82" value="" style="edgeStyle=orthogonalEdgeStyle;rounded=0;html=1;jettySize=auto;orthogonalLoop=1;fontSize=11;endArrow=block;endFill=0;endSize=8;strokeWidth=1;shadow=0;labelBackgroundColor=none;exitX=0.5;exitY=1;exitDx=0;exitDy=0;entryX=0.5;entryY=0;entryDx=0;entryDy=0;" parent="WIyWlLk6GJQsqaUBKTNV-1" source="iEe_-jjcxECdaYQ-cfXd-71" target="iEe_-jjcxECdaYQ-cfXd-81" edge="1">
          <mxGeometry y="10" relative="1" as="geometry">
            <mxPoint as="offset" />
            <mxPoint x="240" y="670" as="sourcePoint" />
            <mxPoint x="140" y="695" as="targetPoint" />
          </mxGeometry>
        </mxCell>
        <mxCell id="iEe_-jjcxECdaYQ-cfXd-83" value="Yes" style="edgeLabel;html=1;align=center;verticalAlign=middle;resizable=0;points=[];" parent="iEe_-jjcxECdaYQ-cfXd-82" vertex="1" connectable="0">
          <mxGeometry x="0.0939" relative="1" as="geometry">
            <mxPoint x="15" y="-3" as="offset" />
          </mxGeometry>
        </mxCell>
        <mxCell id="iEe_-jjcxECdaYQ-cfXd-84" value="" style="edgeStyle=orthogonalEdgeStyle;rounded=0;html=1;jettySize=auto;orthogonalLoop=1;fontSize=11;endArrow=block;endFill=0;endSize=8;strokeWidth=1;shadow=0;labelBackgroundColor=none;exitX=1;exitY=0.5;exitDx=0;exitDy=0;entryX=0;entryY=0.5;entryDx=0;entryDy=0;" parent="WIyWlLk6GJQsqaUBKTNV-1" source="iEe_-jjcxECdaYQ-cfXd-118" target="iEe_-jjcxECdaYQ-cfXd-86" edge="1">
          <mxGeometry y="10" relative="1" as="geometry">
            <mxPoint as="offset" />
            <mxPoint x="570" y="340" as="sourcePoint" />
            <mxPoint x="650" y="400" as="targetPoint" />
          </mxGeometry>
        </mxCell>
        <mxCell id="iEe_-jjcxECdaYQ-cfXd-86" value="Binary Search Tree Algorithm" style="rounded=1;whiteSpace=wrap;html=1;fontSize=12;glass=0;strokeWidth=1;shadow=0;" parent="WIyWlLk6GJQsqaUBKTNV-1" vertex="1">
          <mxGeometry x="630" y="320" width="120" height="40" as="geometry" />
        </mxCell>
        <mxCell id="iEe_-jjcxECdaYQ-cfXd-89" value="Is the DoctorID &lt;br&gt;match to the &lt;br&gt;current user?" style="rhombus;whiteSpace=wrap;html=1;shadow=0;fontFamily=Helvetica;fontSize=12;align=center;strokeWidth=1;spacing=6;spacingTop=-4;" parent="WIyWlLk6GJQsqaUBKTNV-1" vertex="1">
          <mxGeometry x="800" y="357.5" width="160" height="85" as="geometry" />
        </mxCell>
        <mxCell id="iEe_-jjcxECdaYQ-cfXd-90" value="" style="edgeStyle=orthogonalEdgeStyle;rounded=0;html=1;jettySize=auto;orthogonalLoop=1;fontSize=11;endArrow=block;endFill=0;endSize=8;strokeWidth=1;shadow=0;labelBackgroundColor=none;exitX=1;exitY=0.5;exitDx=0;exitDy=0;entryX=0;entryY=0.5;entryDx=0;entryDy=0;" parent="WIyWlLk6GJQsqaUBKTNV-1" source="iEe_-jjcxECdaYQ-cfXd-86" target="iEe_-jjcxECdaYQ-cfXd-89" edge="1">
          <mxGeometry y="10" relative="1" as="geometry">
            <mxPoint as="offset" />
            <mxPoint x="760" y="399.55" as="sourcePoint" />
            <mxPoint x="800" y="400" as="targetPoint" />
          </mxGeometry>
        </mxCell>
        <mxCell id="iEe_-jjcxECdaYQ-cfXd-91" value="" style="edgeStyle=orthogonalEdgeStyle;rounded=0;html=1;jettySize=auto;orthogonalLoop=1;fontSize=11;endArrow=block;endFill=0;endSize=8;strokeWidth=1;shadow=0;labelBackgroundColor=none;entryX=0.5;entryY=1;entryDx=0;entryDy=0;exitX=0.5;exitY=1;exitDx=0;exitDy=0;" parent="WIyWlLk6GJQsqaUBKTNV-1" source="iEe_-jjcxECdaYQ-cfXd-89" target="iEe_-jjcxECdaYQ-cfXd-86" edge="1">
          <mxGeometry y="10" relative="1" as="geometry">
            <mxPoint as="offset" />
            <mxPoint x="880" y="482" as="sourcePoint" />
            <mxPoint x="690" y="542" as="targetPoint" />
            <Array as="points">
              <mxPoint x="880" y="450" />
              <mxPoint x="690" y="450" />
            </Array>
          </mxGeometry>
        </mxCell>
        <mxCell id="iEe_-jjcxECdaYQ-cfXd-104" value="No" style="edgeLabel;html=1;align=center;verticalAlign=middle;resizable=0;points=[];" parent="iEe_-jjcxECdaYQ-cfXd-91" vertex="1" connectable="0">
          <mxGeometry x="-0.1535" relative="1" as="geometry">
            <mxPoint x="-12" y="-9" as="offset" />
          </mxGeometry>
        </mxCell>
        <mxCell id="iEe_-jjcxECdaYQ-cfXd-93" value="Show the Doctor Information" style="rounded=1;whiteSpace=wrap;html=1;fontSize=12;glass=0;strokeWidth=1;shadow=0;" parent="WIyWlLk6GJQsqaUBKTNV-1" vertex="1">
          <mxGeometry x="820" y="270" width="120" height="40" as="geometry" />
        </mxCell>
        <mxCell id="iEe_-jjcxECdaYQ-cfXd-96" value="Want update the&lt;br&gt;personal information?" style="rhombus;whiteSpace=wrap;html=1;shadow=0;fontFamily=Helvetica;fontSize=12;align=center;strokeWidth=1;spacing=6;spacingTop=-4;" parent="WIyWlLk6GJQsqaUBKTNV-1" vertex="1">
          <mxGeometry x="470" y="175" width="160" height="85" as="geometry" />
        </mxCell>
        <mxCell id="iEe_-jjcxECdaYQ-cfXd-97" value="Click Update Button" style="shape=parallelogram;perimeter=parallelogramPerimeter;whiteSpace=wrap;html=1;fixedSize=1;" parent="WIyWlLk6GJQsqaUBKTNV-1" vertex="1">
          <mxGeometry x="810" y="100" width="140" height="50" as="geometry" />
        </mxCell>
        <mxCell id="iEe_-jjcxECdaYQ-cfXd-99" value="" style="edgeStyle=orthogonalEdgeStyle;rounded=0;html=1;jettySize=auto;orthogonalLoop=1;fontSize=11;endArrow=block;endFill=0;endSize=8;strokeWidth=1;shadow=0;labelBackgroundColor=none;exitX=0.5;exitY=0;exitDx=0;exitDy=0;entryX=0.5;entryY=1;entryDx=0;entryDy=0;" parent="WIyWlLk6GJQsqaUBKTNV-1" source="iEe_-jjcxECdaYQ-cfXd-89" target="iEe_-jjcxECdaYQ-cfXd-93" edge="1">
          <mxGeometry y="10" relative="1" as="geometry">
            <mxPoint as="offset" />
            <mxPoint x="580" y="410" as="sourcePoint" />
            <mxPoint x="640" y="410" as="targetPoint" />
          </mxGeometry>
        </mxCell>
        <mxCell id="iEe_-jjcxECdaYQ-cfXd-105" value="Yes" style="edgeLabel;html=1;align=center;verticalAlign=middle;resizable=0;points=[];" parent="iEe_-jjcxECdaYQ-cfXd-99" vertex="1" connectable="0">
          <mxGeometry x="-0.1549" y="-1" relative="1" as="geometry">
            <mxPoint x="9" y="1" as="offset" />
          </mxGeometry>
        </mxCell>
        <mxCell id="iEe_-jjcxECdaYQ-cfXd-100" value="" style="edgeStyle=orthogonalEdgeStyle;rounded=0;html=1;jettySize=auto;orthogonalLoop=1;fontSize=11;endArrow=block;endFill=0;endSize=8;strokeWidth=1;shadow=0;labelBackgroundColor=none;exitX=0;exitY=0.5;exitDx=0;exitDy=0;entryX=0.5;entryY=1;entryDx=0;entryDy=0;" parent="WIyWlLk6GJQsqaUBKTNV-1" source="iEe_-jjcxECdaYQ-cfXd-93" target="iEe_-jjcxECdaYQ-cfXd-96" edge="1">
          <mxGeometry y="10" relative="1" as="geometry">
            <mxPoint as="offset" />
            <mxPoint x="890" y="368" as="sourcePoint" />
            <mxPoint x="890" y="320" as="targetPoint" />
          </mxGeometry>
        </mxCell>
        <mxCell id="iEe_-jjcxECdaYQ-cfXd-101" value="" style="edgeStyle=orthogonalEdgeStyle;rounded=0;html=1;jettySize=auto;orthogonalLoop=1;fontSize=11;endArrow=block;endFill=0;endSize=8;strokeWidth=1;shadow=0;labelBackgroundColor=none;exitX=1;exitY=0.5;exitDx=0;exitDy=0;entryX=0;entryY=0.5;entryDx=0;entryDy=0;" parent="WIyWlLk6GJQsqaUBKTNV-1" source="iEe_-jjcxECdaYQ-cfXd-96" target="iEe_-jjcxECdaYQ-cfXd-97" edge="1">
          <mxGeometry y="10" relative="1" as="geometry">
            <mxPoint as="offset" />
            <mxPoint x="900" y="378" as="sourcePoint" />
            <mxPoint x="900" y="330" as="targetPoint" />
            <Array as="points">
              <mxPoint x="730" y="218" />
              <mxPoint x="730" y="125" />
            </Array>
          </mxGeometry>
        </mxCell>
        <mxCell id="iEe_-jjcxECdaYQ-cfXd-111" value="Yes" style="edgeLabel;html=1;align=center;verticalAlign=middle;resizable=0;points=[];" parent="iEe_-jjcxECdaYQ-cfXd-101" vertex="1" connectable="0">
          <mxGeometry x="-0.0807" y="1" relative="1" as="geometry">
            <mxPoint x="-13" y="-16" as="offset" />
          </mxGeometry>
        </mxCell>
        <mxCell id="iEe_-jjcxECdaYQ-cfXd-102" value="" style="edgeStyle=orthogonalEdgeStyle;rounded=0;html=1;jettySize=auto;orthogonalLoop=1;fontSize=11;endArrow=block;endFill=0;endSize=8;strokeWidth=1;shadow=0;labelBackgroundColor=none;entryX=1;entryY=0;entryDx=0;entryDy=0;exitX=0;exitY=0.5;exitDx=0;exitDy=0;" parent="WIyWlLk6GJQsqaUBKTNV-1" source="iEe_-jjcxECdaYQ-cfXd-96" target="iEe_-jjcxECdaYQ-cfXd-62" edge="1">
          <mxGeometry y="10" relative="1" as="geometry">
            <mxPoint as="offset" />
            <mxPoint x="420" y="230" as="sourcePoint" />
            <mxPoint x="910" y="340" as="targetPoint" />
          </mxGeometry>
        </mxCell>
        <mxCell id="iEe_-jjcxECdaYQ-cfXd-103" value="No" style="edgeLabel;html=1;align=center;verticalAlign=middle;resizable=0;points=[];" parent="iEe_-jjcxECdaYQ-cfXd-102" vertex="1" connectable="0">
          <mxGeometry x="-0.0321" relative="1" as="geometry">
            <mxPoint x="12" y="8" as="offset" />
          </mxGeometry>
        </mxCell>
        <mxCell id="iEe_-jjcxECdaYQ-cfXd-107" value="" style="edgeStyle=orthogonalEdgeStyle;rounded=0;html=1;jettySize=auto;orthogonalLoop=1;fontSize=11;endArrow=block;endFill=0;endSize=8;strokeWidth=1;shadow=0;labelBackgroundColor=none;exitX=1;exitY=0.5;exitDx=0;exitDy=0;entryX=1;entryY=0.5;entryDx=0;entryDy=0;" parent="WIyWlLk6GJQsqaUBKTNV-1" source="iEe_-jjcxECdaYQ-cfXd-97" target="iEe_-jjcxECdaYQ-cfXd-93" edge="1">
          <mxGeometry y="10" relative="1" as="geometry">
            <mxPoint as="offset" />
            <mxPoint x="1020" y="175" as="sourcePoint" />
            <mxPoint x="1020" y="127" as="targetPoint" />
            <Array as="points">
              <mxPoint x="970" y="125" />
              <mxPoint x="970" y="290" />
            </Array>
          </mxGeometry>
        </mxCell>
        <mxCell id="iEe_-jjcxECdaYQ-cfXd-112" value="" style="edgeStyle=orthogonalEdgeStyle;rounded=0;html=1;jettySize=auto;orthogonalLoop=1;fontSize=11;endArrow=block;endFill=0;endSize=8;strokeWidth=1;shadow=0;labelBackgroundColor=none;exitX=1;exitY=0.5;exitDx=0;exitDy=0;entryX=0;entryY=0.5;entryDx=0;entryDy=0;" parent="WIyWlLk6GJQsqaUBKTNV-1" source="iEe_-jjcxECdaYQ-cfXd-119" target="iEe_-jjcxECdaYQ-cfXd-123" edge="1">
          <mxGeometry y="10" relative="1" as="geometry">
            <mxPoint as="offset" />
            <mxPoint x="570" y="500" as="sourcePoint" />
            <mxPoint x="610" y="500" as="targetPoint" />
          </mxGeometry>
        </mxCell>
        <mxCell id="iEe_-jjcxECdaYQ-cfXd-118" value="Pick Option 1" style="shape=parallelogram;perimeter=parallelogramPerimeter;whiteSpace=wrap;html=1;fixedSize=1;" parent="WIyWlLk6GJQsqaUBKTNV-1" vertex="1">
          <mxGeometry x="450" y="322.5" width="110" height="35" as="geometry" />
        </mxCell>
        <mxCell id="iEe_-jjcxECdaYQ-cfXd-119" value="Pick Option 2" style="shape=parallelogram;perimeter=parallelogramPerimeter;whiteSpace=wrap;html=1;fixedSize=1;" parent="WIyWlLk6GJQsqaUBKTNV-1" vertex="1">
          <mxGeometry x="450" y="482.5" width="110" height="35" as="geometry" />
        </mxCell>
        <mxCell id="iEe_-jjcxECdaYQ-cfXd-120" value="Pick Option 3" style="shape=parallelogram;perimeter=parallelogramPerimeter;whiteSpace=wrap;html=1;fixedSize=1;" parent="WIyWlLk6GJQsqaUBKTNV-1" vertex="1">
          <mxGeometry x="229.5" y="745.5" width="110" height="35" as="geometry" />
        </mxCell>
        <mxCell id="iEe_-jjcxECdaYQ-cfXd-121" value="Pick Option 4" style="shape=parallelogram;perimeter=parallelogramPerimeter;whiteSpace=wrap;html=1;fixedSize=1;" parent="WIyWlLk6GJQsqaUBKTNV-1" vertex="1">
          <mxGeometry x="121.5" y="605" width="110" height="35" as="geometry" />
        </mxCell>
        <mxCell id="iEe_-jjcxECdaYQ-cfXd-123" value="Fill in Dengue Fever Information" style="rounded=1;whiteSpace=wrap;html=1;fontSize=12;glass=0;strokeWidth=1;shadow=0;" parent="WIyWlLk6GJQsqaUBKTNV-1" vertex="1">
          <mxGeometry x="630" y="480" width="120" height="40" as="geometry" />
        </mxCell>
        <mxCell id="iEe_-jjcxECdaYQ-cfXd-125" value="Is all information &lt;br&gt;filled in?" style="rhombus;whiteSpace=wrap;html=1;shadow=0;fontFamily=Helvetica;fontSize=12;align=center;strokeWidth=1;spacing=6;spacingTop=-4;" parent="WIyWlLk6GJQsqaUBKTNV-1" vertex="1">
          <mxGeometry x="780" y="555" width="160" height="60" as="geometry" />
        </mxCell>
        <mxCell id="iEe_-jjcxECdaYQ-cfXd-127" value="" style="edgeStyle=orthogonalEdgeStyle;rounded=0;html=1;jettySize=auto;orthogonalLoop=1;fontSize=11;endArrow=block;endFill=0;endSize=8;strokeWidth=1;shadow=0;labelBackgroundColor=none;exitX=0.5;exitY=0;exitDx=0;exitDy=0;entryX=1;entryY=0.5;entryDx=0;entryDy=0;" parent="WIyWlLk6GJQsqaUBKTNV-1" source="iEe_-jjcxECdaYQ-cfXd-125" target="iEe_-jjcxECdaYQ-cfXd-123" edge="1">
          <mxGeometry y="10" relative="1" as="geometry">
            <mxPoint as="offset" />
            <mxPoint x="770" y="640" as="sourcePoint" />
            <mxPoint x="770" y="700" as="targetPoint" />
          </mxGeometry>
        </mxCell>
        <mxCell id="iEe_-jjcxECdaYQ-cfXd-128" value="No" style="edgeLabel;html=1;align=center;verticalAlign=middle;resizable=0;points=[];" parent="iEe_-jjcxECdaYQ-cfXd-127" vertex="1" connectable="0">
          <mxGeometry x="-0.0976" relative="1" as="geometry">
            <mxPoint x="-20" y="10" as="offset" />
          </mxGeometry>
        </mxCell>
        <mxCell id="iEe_-jjcxECdaYQ-cfXd-129" value="Click Insert Button" style="shape=parallelogram;perimeter=parallelogramPerimeter;whiteSpace=wrap;html=1;fixedSize=1;" parent="WIyWlLk6GJQsqaUBKTNV-1" vertex="1">
          <mxGeometry x="625" y="570" width="130" height="35" as="geometry" />
        </mxCell>
        <mxCell id="iEe_-jjcxECdaYQ-cfXd-130" value="" style="edgeStyle=orthogonalEdgeStyle;rounded=0;html=1;jettySize=auto;orthogonalLoop=1;fontSize=11;endArrow=block;endFill=0;endSize=8;strokeWidth=1;shadow=0;labelBackgroundColor=none;exitX=0.5;exitY=1;exitDx=0;exitDy=0;entryX=0.5;entryY=0;entryDx=0;entryDy=0;" parent="WIyWlLk6GJQsqaUBKTNV-1" source="iEe_-jjcxECdaYQ-cfXd-123" target="iEe_-jjcxECdaYQ-cfXd-129" edge="1">
          <mxGeometry y="10" relative="1" as="geometry">
            <mxPoint as="offset" />
            <mxPoint x="560" y="510" as="sourcePoint" />
            <mxPoint x="640" y="510" as="targetPoint" />
          </mxGeometry>
        </mxCell>
        <mxCell id="iEe_-jjcxECdaYQ-cfXd-131" value="" style="edgeStyle=orthogonalEdgeStyle;rounded=0;html=1;jettySize=auto;orthogonalLoop=1;fontSize=11;endArrow=block;endFill=0;endSize=8;strokeWidth=1;shadow=0;labelBackgroundColor=none;exitX=1;exitY=0.5;exitDx=0;exitDy=0;entryX=0;entryY=0.5;entryDx=0;entryDy=0;" parent="WIyWlLk6GJQsqaUBKTNV-1" source="iEe_-jjcxECdaYQ-cfXd-129" target="iEe_-jjcxECdaYQ-cfXd-125" edge="1">
          <mxGeometry y="10" relative="1" as="geometry">
            <mxPoint as="offset" />
            <mxPoint x="689.62" y="610" as="sourcePoint" />
            <mxPoint x="689.62" y="660" as="targetPoint" />
            <Array as="points">
              <mxPoint x="745" y="585" />
            </Array>
          </mxGeometry>
        </mxCell>
        <mxCell id="iEe_-jjcxECdaYQ-cfXd-132" value="" style="edgeStyle=orthogonalEdgeStyle;rounded=0;html=1;jettySize=auto;orthogonalLoop=1;fontSize=11;endArrow=block;endFill=0;endSize=8;strokeWidth=1;shadow=0;labelBackgroundColor=none;exitX=1;exitY=0.5;exitDx=0;exitDy=0;entryX=0;entryY=0.5;entryDx=0;entryDy=0;" parent="WIyWlLk6GJQsqaUBKTNV-1" source="iEe_-jjcxECdaYQ-cfXd-125" target="iEe_-jjcxECdaYQ-cfXd-133" edge="1">
          <mxGeometry y="10" relative="1" as="geometry">
            <mxPoint as="offset" />
            <mxPoint x="950" y="482.5" as="sourcePoint" />
            <mxPoint x="950" y="532.5" as="targetPoint" />
          </mxGeometry>
        </mxCell>
        <mxCell id="iEe_-jjcxECdaYQ-cfXd-134" value="Yes" style="edgeLabel;html=1;align=center;verticalAlign=middle;resizable=0;points=[];" parent="iEe_-jjcxECdaYQ-cfXd-132" vertex="1" connectable="0">
          <mxGeometry x="0.1969" relative="1" as="geometry">
            <mxPoint x="-9" y="-9" as="offset" />
          </mxGeometry>
        </mxCell>
        <mxCell id="iEe_-jjcxECdaYQ-cfXd-133" value="Store inside the container" style="rounded=1;whiteSpace=wrap;html=1;fontSize=12;glass=0;strokeWidth=1;shadow=0;" parent="WIyWlLk6GJQsqaUBKTNV-1" vertex="1">
          <mxGeometry x="990" y="565" width="120" height="40" as="geometry" />
        </mxCell>
        <mxCell id="iEe_-jjcxECdaYQ-cfXd-135" value="" style="edgeStyle=orthogonalEdgeStyle;rounded=0;html=1;jettySize=auto;orthogonalLoop=1;fontSize=11;endArrow=block;endFill=0;endSize=8;strokeWidth=1;shadow=0;labelBackgroundColor=none;entryX=1;entryY=0.75;entryDx=0;entryDy=0;exitX=0.5;exitY=1;exitDx=0;exitDy=0;" parent="WIyWlLk6GJQsqaUBKTNV-1" source="iEe_-jjcxECdaYQ-cfXd-133" target="iEe_-jjcxECdaYQ-cfXd-62" edge="1">
          <mxGeometry y="10" relative="1" as="geometry">
            <mxPoint as="offset" />
            <mxPoint x="1070" y="710" as="sourcePoint" />
            <mxPoint x="840" y="870" as="targetPoint" />
            <Array as="points">
              <mxPoint x="1050" y="650" />
              <mxPoint x="410" y="650" />
              <mxPoint x="410" y="522" />
            </Array>
          </mxGeometry>
        </mxCell>
        <mxCell id="iEe_-jjcxECdaYQ-cfXd-138" value="" style="edgeStyle=orthogonalEdgeStyle;rounded=0;html=1;jettySize=auto;orthogonalLoop=1;fontSize=11;endArrow=block;endFill=0;endSize=8;strokeWidth=1;shadow=0;labelBackgroundColor=none;exitX=0.75;exitY=1;exitDx=0;exitDy=0;entryX=0.5;entryY=0;entryDx=0;entryDy=0;" parent="WIyWlLk6GJQsqaUBKTNV-1" source="iEe_-jjcxECdaYQ-cfXd-62" target="iEe_-jjcxECdaYQ-cfXd-120" edge="1">
          <mxGeometry y="10" relative="1" as="geometry">
            <mxPoint as="offset" />
            <mxPoint x="320" y="657.5" as="sourcePoint" />
            <mxPoint x="321" y="712.5" as="targetPoint" />
          </mxGeometry>
        </mxCell>
        <mxCell id="iEe_-jjcxECdaYQ-cfXd-140" value="" style="edgeStyle=orthogonalEdgeStyle;rounded=0;html=1;jettySize=auto;orthogonalLoop=1;fontSize=11;endArrow=block;endFill=0;endSize=8;strokeWidth=1;shadow=0;labelBackgroundColor=none;exitX=1;exitY=0.5;exitDx=0;exitDy=0;entryX=0;entryY=0.5;entryDx=0;entryDy=0;" parent="WIyWlLk6GJQsqaUBKTNV-1" source="iEe_-jjcxECdaYQ-cfXd-120" target="iEe_-jjcxECdaYQ-cfXd-141" edge="1">
          <mxGeometry y="10" relative="1" as="geometry">
            <mxPoint as="offset" />
            <mxPoint x="380" y="841.5" as="sourcePoint" />
            <mxPoint x="381" y="896.5" as="targetPoint" />
          </mxGeometry>
        </mxCell>
        <mxCell id="iEe_-jjcxECdaYQ-cfXd-141" value="Quick Sorting" style="rounded=1;whiteSpace=wrap;html=1;fontSize=12;glass=0;strokeWidth=1;shadow=0;" parent="WIyWlLk6GJQsqaUBKTNV-1" vertex="1">
          <mxGeometry x="380" y="743" width="120" height="40" as="geometry" />
        </mxCell>
        <mxCell id="iEe_-jjcxECdaYQ-cfXd-142" value="" style="edgeStyle=orthogonalEdgeStyle;rounded=0;html=1;jettySize=auto;orthogonalLoop=1;fontSize=11;endArrow=block;endFill=0;endSize=8;strokeWidth=1;shadow=0;labelBackgroundColor=none;exitX=1;exitY=0.5;exitDx=0;exitDy=0;entryX=0;entryY=0.5;entryDx=0;entryDy=0;" parent="WIyWlLk6GJQsqaUBKTNV-1" source="iEe_-jjcxECdaYQ-cfXd-141" target="iEe_-jjcxECdaYQ-cfXd-143" edge="1">
          <mxGeometry y="10" relative="1" as="geometry">
            <mxPoint as="offset" />
            <mxPoint x="520" y="762.8" as="sourcePoint" />
            <mxPoint x="570" y="762.8" as="targetPoint" />
          </mxGeometry>
        </mxCell>
        <mxCell id="iEe_-jjcxECdaYQ-cfXd-143" value="View all cases" style="rounded=1;whiteSpace=wrap;html=1;fontSize=12;glass=0;strokeWidth=1;shadow=0;" parent="WIyWlLk6GJQsqaUBKTNV-1" vertex="1">
          <mxGeometry x="550" y="743" width="120" height="40" as="geometry" />
        </mxCell>
        <mxCell id="iEe_-jjcxECdaYQ-cfXd-144" value="Want to search &lt;br&gt;any specific information?" style="rhombus;whiteSpace=wrap;html=1;shadow=0;fontFamily=Helvetica;fontSize=12;align=center;strokeWidth=1;spacing=6;spacingTop=-4;" parent="WIyWlLk6GJQsqaUBKTNV-1" vertex="1">
          <mxGeometry x="720" y="728" width="170" height="70" as="geometry" />
        </mxCell>
        <mxCell id="iEe_-jjcxECdaYQ-cfXd-145" value="" style="edgeStyle=orthogonalEdgeStyle;rounded=0;html=1;jettySize=auto;orthogonalLoop=1;fontSize=11;endArrow=block;endFill=0;endSize=8;strokeWidth=1;shadow=0;labelBackgroundColor=none;exitX=1;exitY=0.5;exitDx=0;exitDy=0;entryX=0;entryY=0.5;entryDx=0;entryDy=0;" parent="WIyWlLk6GJQsqaUBKTNV-1" source="iEe_-jjcxECdaYQ-cfXd-143" target="iEe_-jjcxECdaYQ-cfXd-144" edge="1">
          <mxGeometry y="10" relative="1" as="geometry">
            <mxPoint as="offset" />
            <mxPoint x="690" y="762.81" as="sourcePoint" />
            <mxPoint x="740" y="762.81" as="targetPoint" />
          </mxGeometry>
        </mxCell>
        <mxCell id="iEe_-jjcxECdaYQ-cfXd-146" value="" style="edgeStyle=orthogonalEdgeStyle;rounded=0;html=1;jettySize=auto;orthogonalLoop=1;fontSize=11;endArrow=block;endFill=0;endSize=8;strokeWidth=1;shadow=0;labelBackgroundColor=none;exitX=0.5;exitY=1;exitDx=0;exitDy=0;entryX=0.5;entryY=1;entryDx=0;entryDy=0;" parent="WIyWlLk6GJQsqaUBKTNV-1" source="iEe_-jjcxECdaYQ-cfXd-144" target="iEe_-jjcxECdaYQ-cfXd-143" edge="1">
          <mxGeometry y="10" relative="1" as="geometry">
            <mxPoint as="offset" />
            <mxPoint x="680" y="861.5" as="sourcePoint" />
            <mxPoint x="730" y="861.5" as="targetPoint" />
          </mxGeometry>
        </mxCell>
        <mxCell id="iEe_-jjcxECdaYQ-cfXd-147" value="No" style="edgeLabel;html=1;align=center;verticalAlign=middle;resizable=0;points=[];" parent="iEe_-jjcxECdaYQ-cfXd-146" vertex="1" connectable="0">
          <mxGeometry x="-0.1394" y="-1" relative="1" as="geometry">
            <mxPoint x="-7" y="-7" as="offset" />
          </mxGeometry>
        </mxCell>
        <mxCell id="iEe_-jjcxECdaYQ-cfXd-148" value="" style="edgeStyle=orthogonalEdgeStyle;rounded=0;html=1;jettySize=auto;orthogonalLoop=1;fontSize=11;endArrow=block;endFill=0;endSize=8;strokeWidth=1;shadow=0;labelBackgroundColor=none;exitX=1;exitY=0.5;exitDx=0;exitDy=0;entryX=0;entryY=0.5;entryDx=0;entryDy=0;" parent="WIyWlLk6GJQsqaUBKTNV-1" source="iEe_-jjcxECdaYQ-cfXd-144" target="iEe_-jjcxECdaYQ-cfXd-150" edge="1">
          <mxGeometry y="10" relative="1" as="geometry">
            <mxPoint as="offset" />
            <mxPoint x="920" y="762.72" as="sourcePoint" />
            <mxPoint x="930" y="762.5" as="targetPoint" />
          </mxGeometry>
        </mxCell>
        <mxCell id="iEe_-jjcxECdaYQ-cfXd-149" value="Yes" style="edgeLabel;html=1;align=center;verticalAlign=middle;resizable=0;points=[];" parent="iEe_-jjcxECdaYQ-cfXd-148" vertex="1" connectable="0">
          <mxGeometry x="-0.1055" relative="1" as="geometry">
            <mxPoint x="-4" y="-8" as="offset" />
          </mxGeometry>
        </mxCell>
        <mxCell id="iEe_-jjcxECdaYQ-cfXd-150" value="Binary Search Tree Algorithm" style="rounded=1;whiteSpace=wrap;html=1;fontSize=12;glass=0;strokeWidth=1;shadow=0;" parent="WIyWlLk6GJQsqaUBKTNV-1" vertex="1">
          <mxGeometry x="940" y="743" width="120" height="40" as="geometry" />
        </mxCell>
        <mxCell id="iEe_-jjcxECdaYQ-cfXd-152" value="" style="edgeStyle=orthogonalEdgeStyle;rounded=0;html=1;jettySize=auto;orthogonalLoop=1;fontSize=11;endArrow=block;endFill=0;endSize=8;strokeWidth=1;shadow=0;labelBackgroundColor=none;exitX=1;exitY=0.5;exitDx=0;exitDy=0;entryX=0;entryY=0.5;entryDx=0;entryDy=0;" parent="WIyWlLk6GJQsqaUBKTNV-1" source="iEe_-jjcxECdaYQ-cfXd-150" target="iEe_-jjcxECdaYQ-cfXd-153" edge="1">
          <mxGeometry y="10" relative="1" as="geometry">
            <mxPoint as="offset" />
            <mxPoint x="1090" y="762.58" as="sourcePoint" />
            <mxPoint x="1110" y="762.5" as="targetPoint" />
          </mxGeometry>
        </mxCell>
        <mxCell id="iEe_-jjcxECdaYQ-cfXd-153" value="Show Specific Dengue Cases" style="rounded=1;whiteSpace=wrap;html=1;fontSize=12;glass=0;strokeWidth=1;shadow=0;" parent="WIyWlLk6GJQsqaUBKTNV-1" vertex="1">
          <mxGeometry x="1110" y="743" width="120" height="40" as="geometry" />
        </mxCell>
        <mxCell id="iEe_-jjcxECdaYQ-cfXd-154" value="" style="edgeStyle=orthogonalEdgeStyle;rounded=0;html=1;jettySize=auto;orthogonalLoop=1;fontSize=11;endArrow=block;endFill=0;endSize=8;strokeWidth=1;shadow=0;labelBackgroundColor=none;exitX=0.5;exitY=0;exitDx=0;exitDy=0;entryX=0.819;entryY=0.991;entryDx=0;entryDy=0;entryPerimeter=0;" parent="WIyWlLk6GJQsqaUBKTNV-1" source="iEe_-jjcxECdaYQ-cfXd-153" target="iEe_-jjcxECdaYQ-cfXd-62" edge="1">
          <mxGeometry y="10" relative="1" as="geometry">
            <mxPoint as="offset" />
            <mxPoint x="1020" y="770" as="sourcePoint" />
            <mxPoint x="318.76924954927887" y="620" as="targetPoint" />
            <Array as="points">
              <mxPoint x="1170" y="690" />
              <mxPoint x="299" y="690" />
            </Array>
          </mxGeometry>
        </mxCell>
      </root>
    </mxGraphModel>
  </diagram>
  <diagram id="FX_vekWBpe3DkiOxh_cE" name="Page-2">
    <mxGraphModel dx="1290" dy="534" grid="1" gridSize="10" guides="1" tooltips="1" connect="1" arrows="1" fold="1" page="1" pageScale="1" pageWidth="827" pageHeight="1169" math="0" shadow="0">
      <root>
        <mxCell id="0" />
        <mxCell id="1" parent="0" />
        <mxCell id="hBcHgdKthnIo2r7EGU31-7" value="Start" style="ellipse;whiteSpace=wrap;html=1;aspect=fixed;" parent="1" vertex="1">
          <mxGeometry x="190" y="60" width="80" height="80" as="geometry" />
        </mxCell>
        <mxCell id="hBcHgdKthnIo2r7EGU31-8" value="" style="rounded=0;html=1;jettySize=auto;orthogonalLoop=1;fontSize=11;endArrow=block;endFill=0;endSize=8;strokeWidth=1;shadow=0;labelBackgroundColor=none;edgeStyle=orthogonalEdgeStyle;exitX=0.5;exitY=1;exitDx=0;exitDy=0;entryX=0.5;entryY=0;entryDx=0;entryDy=0;" parent="1" source="hBcHgdKthnIo2r7EGU31-7" target="hBcHgdKthnIo2r7EGU31-67" edge="1">
          <mxGeometry relative="1" as="geometry">
            <mxPoint x="240" y="270" as="sourcePoint" />
            <mxPoint x="230" y="220" as="targetPoint" />
          </mxGeometry>
        </mxCell>
        <mxCell id="hBcHgdKthnIo2r7EGU31-19" value="" style="edgeStyle=orthogonalEdgeStyle;rounded=0;html=1;jettySize=auto;orthogonalLoop=1;fontSize=11;endArrow=block;endFill=0;endSize=8;strokeWidth=1;shadow=0;labelBackgroundColor=none;exitX=0.5;exitY=1;exitDx=0;exitDy=0;entryX=0.5;entryY=0;entryDx=0;entryDy=0;" parent="1" source="hBcHgdKthnIo2r7EGU31-67" target="hBcHgdKthnIo2r7EGU31-20" edge="1">
          <mxGeometry y="10" relative="1" as="geometry">
            <mxPoint as="offset" />
            <mxPoint x="550" y="280" as="sourcePoint" />
            <mxPoint x="650" y="340" as="targetPoint" />
          </mxGeometry>
        </mxCell>
        <mxCell id="hBcHgdKthnIo2r7EGU31-20" value="Binary Search Tree Algorithm" style="rounded=1;whiteSpace=wrap;html=1;fontSize=12;glass=0;strokeWidth=1;shadow=0;" parent="1" vertex="1">
          <mxGeometry x="170" y="330" width="120" height="40" as="geometry" />
        </mxCell>
        <mxCell id="hBcHgdKthnIo2r7EGU31-21" value="Is the DoctorID &lt;br&gt;match to the &lt;br&gt;current user?" style="rhombus;whiteSpace=wrap;html=1;shadow=0;fontFamily=Helvetica;fontSize=12;align=center;strokeWidth=1;spacing=6;spacingTop=-4;" parent="1" vertex="1">
          <mxGeometry x="380" y="307.5" width="160" height="85" as="geometry" />
        </mxCell>
        <mxCell id="hBcHgdKthnIo2r7EGU31-25" value="Show the Doctor Information" style="rounded=1;whiteSpace=wrap;html=1;fontSize=12;glass=0;strokeWidth=1;shadow=0;" parent="1" vertex="1">
          <mxGeometry x="690" y="330" width="120" height="40" as="geometry" />
        </mxCell>
        <mxCell id="hBcHgdKthnIo2r7EGU31-26" value="Want update the&lt;br&gt;personal information?" style="rhombus;whiteSpace=wrap;html=1;shadow=0;fontFamily=Helvetica;fontSize=12;align=center;strokeWidth=1;spacing=6;spacingTop=-4;" parent="1" vertex="1">
          <mxGeometry x="900" y="307.5" width="160" height="85" as="geometry" />
        </mxCell>
        <mxCell id="hBcHgdKthnIo2r7EGU31-27" value="Click Update Button" style="shape=parallelogram;perimeter=parallelogramPerimeter;whiteSpace=wrap;html=1;fixedSize=1;" parent="1" vertex="1">
          <mxGeometry x="910" y="460" width="140" height="50" as="geometry" />
        </mxCell>
        <mxCell id="hBcHgdKthnIo2r7EGU31-28" value="" style="edgeStyle=orthogonalEdgeStyle;rounded=0;html=1;jettySize=auto;orthogonalLoop=1;fontSize=11;endArrow=block;endFill=0;endSize=8;strokeWidth=1;shadow=0;labelBackgroundColor=none;exitX=1;exitY=0.5;exitDx=0;exitDy=0;entryX=0;entryY=0.5;entryDx=0;entryDy=0;" parent="1" source="hBcHgdKthnIo2r7EGU31-21" target="hBcHgdKthnIo2r7EGU31-25" edge="1">
          <mxGeometry y="10" relative="1" as="geometry">
            <mxPoint as="offset" />
            <mxPoint x="580" y="350" as="sourcePoint" />
            <mxPoint x="640" y="350" as="targetPoint" />
          </mxGeometry>
        </mxCell>
        <mxCell id="hBcHgdKthnIo2r7EGU31-29" value="Yes" style="edgeLabel;html=1;align=center;verticalAlign=middle;resizable=0;points=[];" parent="hBcHgdKthnIo2r7EGU31-28" vertex="1" connectable="0">
          <mxGeometry x="-0.1549" y="-1" relative="1" as="geometry">
            <mxPoint x="9" y="10" as="offset" />
          </mxGeometry>
        </mxCell>
        <mxCell id="hBcHgdKthnIo2r7EGU31-67" value="Manage Doctor Information" style="rounded=1;whiteSpace=wrap;html=1;fontSize=12;glass=0;strokeWidth=1;shadow=0;" parent="1" vertex="1">
          <mxGeometry x="170" y="210" width="120" height="40" as="geometry" />
        </mxCell>
        <mxCell id="hBcHgdKthnIo2r7EGU31-68" value="" style="edgeStyle=orthogonalEdgeStyle;rounded=0;html=1;jettySize=auto;orthogonalLoop=1;fontSize=11;endArrow=block;endFill=0;endSize=8;strokeWidth=1;shadow=0;labelBackgroundColor=none;exitX=1;exitY=0.5;exitDx=0;exitDy=0;entryX=0;entryY=0.5;entryDx=0;entryDy=0;" parent="1" source="hBcHgdKthnIo2r7EGU31-20" target="hBcHgdKthnIo2r7EGU31-21" edge="1">
          <mxGeometry y="10" relative="1" as="geometry">
            <mxPoint as="offset" />
            <mxPoint x="240" y="260" as="sourcePoint" />
            <mxPoint x="240" y="340" as="targetPoint" />
          </mxGeometry>
        </mxCell>
        <mxCell id="hBcHgdKthnIo2r7EGU31-69" value="" style="edgeStyle=orthogonalEdgeStyle;rounded=0;html=1;jettySize=auto;orthogonalLoop=1;fontSize=11;endArrow=block;endFill=0;endSize=8;strokeWidth=1;shadow=0;labelBackgroundColor=none;exitX=0.5;exitY=1;exitDx=0;exitDy=0;entryX=0.5;entryY=1;entryDx=0;entryDy=0;" parent="1" source="hBcHgdKthnIo2r7EGU31-21" target="hBcHgdKthnIo2r7EGU31-20" edge="1">
          <mxGeometry y="10" relative="1" as="geometry">
            <mxPoint as="offset" />
            <mxPoint x="550" y="360" as="sourcePoint" />
            <mxPoint x="700" y="360" as="targetPoint" />
          </mxGeometry>
        </mxCell>
        <mxCell id="hBcHgdKthnIo2r7EGU31-70" value="No" style="edgeLabel;html=1;align=center;verticalAlign=middle;resizable=0;points=[];" parent="hBcHgdKthnIo2r7EGU31-69" vertex="1" connectable="0">
          <mxGeometry x="-0.1549" y="-1" relative="1" as="geometry">
            <mxPoint x="-26" y="-12" as="offset" />
          </mxGeometry>
        </mxCell>
        <mxCell id="hBcHgdKthnIo2r7EGU31-73" value="" style="edgeStyle=orthogonalEdgeStyle;rounded=0;html=1;jettySize=auto;orthogonalLoop=1;fontSize=11;endArrow=block;endFill=0;endSize=8;strokeWidth=1;shadow=0;labelBackgroundColor=none;exitX=1;exitY=0.5;exitDx=0;exitDy=0;entryX=0;entryY=0.5;entryDx=0;entryDy=0;" parent="1" source="hBcHgdKthnIo2r7EGU31-25" target="hBcHgdKthnIo2r7EGU31-26" edge="1">
          <mxGeometry y="10" relative="1" as="geometry">
            <mxPoint as="offset" />
            <mxPoint x="820" y="410" as="sourcePoint" />
            <mxPoint x="910" y="410" as="targetPoint" />
          </mxGeometry>
        </mxCell>
        <mxCell id="etNK568rLGBqv3ciR5aP-1" value="End" style="ellipse;whiteSpace=wrap;html=1;aspect=fixed;" parent="1" vertex="1">
          <mxGeometry x="940" y="570" width="80" height="80" as="geometry" />
        </mxCell>
        <mxCell id="etNK568rLGBqv3ciR5aP-2" value="" style="edgeStyle=orthogonalEdgeStyle;rounded=0;html=1;jettySize=auto;orthogonalLoop=1;fontSize=11;endArrow=block;endFill=0;endSize=8;strokeWidth=1;shadow=0;labelBackgroundColor=none;exitX=0.5;exitY=1;exitDx=0;exitDy=0;entryX=0.5;entryY=0;entryDx=0;entryDy=0;" parent="1" source="hBcHgdKthnIo2r7EGU31-26" target="hBcHgdKthnIo2r7EGU31-27" edge="1">
          <mxGeometry y="10" relative="1" as="geometry">
            <mxPoint as="offset" />
            <mxPoint x="820" y="360" as="sourcePoint" />
            <mxPoint x="910" y="360" as="targetPoint" />
          </mxGeometry>
        </mxCell>
        <mxCell id="etNK568rLGBqv3ciR5aP-4" value="Yes" style="edgeLabel;html=1;align=center;verticalAlign=middle;resizable=0;points=[];" parent="etNK568rLGBqv3ciR5aP-2" vertex="1" connectable="0">
          <mxGeometry x="-0.2898" y="4" relative="1" as="geometry">
            <mxPoint x="6" y="4" as="offset" />
          </mxGeometry>
        </mxCell>
        <mxCell id="etNK568rLGBqv3ciR5aP-3" value="" style="edgeStyle=orthogonalEdgeStyle;rounded=0;html=1;jettySize=auto;orthogonalLoop=1;fontSize=11;endArrow=block;endFill=0;endSize=8;strokeWidth=1;shadow=0;labelBackgroundColor=none;exitX=0.5;exitY=0;exitDx=0;exitDy=0;entryX=0.5;entryY=0;entryDx=0;entryDy=0;" parent="1" source="hBcHgdKthnIo2r7EGU31-26" target="hBcHgdKthnIo2r7EGU31-25" edge="1">
          <mxGeometry y="10" relative="1" as="geometry">
            <mxPoint as="offset" />
            <mxPoint x="830" y="370" as="sourcePoint" />
            <mxPoint x="920" y="370" as="targetPoint" />
          </mxGeometry>
        </mxCell>
        <mxCell id="etNK568rLGBqv3ciR5aP-5" value="No" style="edgeLabel;html=1;align=center;verticalAlign=middle;resizable=0;points=[];" parent="etNK568rLGBqv3ciR5aP-3" vertex="1" connectable="0">
          <mxGeometry x="-0.0387" y="-5" relative="1" as="geometry">
            <mxPoint x="-1" y="-3" as="offset" />
          </mxGeometry>
        </mxCell>
        <mxCell id="etNK568rLGBqv3ciR5aP-6" value="" style="edgeStyle=orthogonalEdgeStyle;rounded=0;html=1;jettySize=auto;orthogonalLoop=1;fontSize=11;endArrow=block;endFill=0;endSize=8;strokeWidth=1;shadow=0;labelBackgroundColor=none;exitX=0.5;exitY=1;exitDx=0;exitDy=0;entryX=0.5;entryY=0;entryDx=0;entryDy=0;" parent="1" source="hBcHgdKthnIo2r7EGU31-27" target="etNK568rLGBqv3ciR5aP-1" edge="1">
          <mxGeometry y="10" relative="1" as="geometry">
            <mxPoint as="offset" />
            <mxPoint x="840" y="380" as="sourcePoint" />
            <mxPoint x="930" y="380" as="targetPoint" />
          </mxGeometry>
        </mxCell>
      </root>
    </mxGraphModel>
  </diagram>
  <diagram id="iTcuUYMq_liOXlW_po1R" name="Page-3">
    <mxGraphModel dx="1290" dy="534" grid="1" gridSize="10" guides="1" tooltips="1" connect="1" arrows="1" fold="1" page="1" pageScale="1" pageWidth="827" pageHeight="1169" math="0" shadow="0">
      <root>
        <mxCell id="0" />
        <mxCell id="1" parent="0" />
        <mxCell id="2bhRD3LpHELtTaCQS03l-7" value="Start" style="ellipse;whiteSpace=wrap;html=1;aspect=fixed;" parent="1" vertex="1">
          <mxGeometry x="190" y="60" width="80" height="80" as="geometry" />
        </mxCell>
        <mxCell id="2bhRD3LpHELtTaCQS03l-8" value="" style="rounded=0;html=1;jettySize=auto;orthogonalLoop=1;fontSize=11;endArrow=block;endFill=0;endSize=8;strokeWidth=1;shadow=0;labelBackgroundColor=none;edgeStyle=orthogonalEdgeStyle;exitX=0.5;exitY=1;exitDx=0;exitDy=0;entryX=0.5;entryY=0;entryDx=0;entryDy=0;" parent="1" source="2bhRD3LpHELtTaCQS03l-7" target="2bhRD3LpHELtTaCQS03l-41" edge="1">
          <mxGeometry relative="1" as="geometry">
            <mxPoint x="240" y="270" as="sourcePoint" />
            <mxPoint x="230" y="220" as="targetPoint" />
          </mxGeometry>
        </mxCell>
        <mxCell id="2bhRD3LpHELtTaCQS03l-16" value="End" style="ellipse;whiteSpace=wrap;html=1;aspect=fixed;" parent="1" vertex="1">
          <mxGeometry x="630" y="390" width="80" height="80" as="geometry" />
        </mxCell>
        <mxCell id="2bhRD3LpHELtTaCQS03l-41" value="Fill in Dengue Fever Information" style="rounded=1;whiteSpace=wrap;html=1;fontSize=12;glass=0;strokeWidth=1;shadow=0;" parent="1" vertex="1">
          <mxGeometry x="170" y="200" width="120" height="40" as="geometry" />
        </mxCell>
        <mxCell id="2bhRD3LpHELtTaCQS03l-42" value="Is all information &lt;br&gt;filled in?" style="rhombus;whiteSpace=wrap;html=1;shadow=0;fontFamily=Helvetica;fontSize=12;align=center;strokeWidth=1;spacing=6;spacingTop=-4;" parent="1" vertex="1">
          <mxGeometry x="350" y="287.5" width="160" height="60" as="geometry" />
        </mxCell>
        <mxCell id="2bhRD3LpHELtTaCQS03l-45" value="Click Insert Button" style="shape=parallelogram;perimeter=parallelogramPerimeter;whiteSpace=wrap;html=1;fixedSize=1;" parent="1" vertex="1">
          <mxGeometry x="165" y="300" width="130" height="35" as="geometry" />
        </mxCell>
        <mxCell id="2bhRD3LpHELtTaCQS03l-46" value="" style="edgeStyle=orthogonalEdgeStyle;rounded=0;html=1;jettySize=auto;orthogonalLoop=1;fontSize=11;endArrow=block;endFill=0;endSize=8;strokeWidth=1;shadow=0;labelBackgroundColor=none;entryX=0.5;entryY=0;entryDx=0;entryDy=0;exitX=0.5;exitY=1;exitDx=0;exitDy=0;" parent="1" source="2bhRD3LpHELtTaCQS03l-41" target="2bhRD3LpHELtTaCQS03l-45" edge="1">
          <mxGeometry y="10" relative="1" as="geometry">
            <mxPoint as="offset" />
            <mxPoint x="800" y="300" as="sourcePoint" />
            <mxPoint x="640" y="510" as="targetPoint" />
          </mxGeometry>
        </mxCell>
        <mxCell id="2bhRD3LpHELtTaCQS03l-48" value="" style="edgeStyle=orthogonalEdgeStyle;rounded=0;html=1;jettySize=auto;orthogonalLoop=1;fontSize=11;endArrow=block;endFill=0;endSize=8;strokeWidth=1;shadow=0;labelBackgroundColor=none;exitX=1;exitY=0.5;exitDx=0;exitDy=0;entryX=0;entryY=0.5;entryDx=0;entryDy=0;" parent="1" source="2bhRD3LpHELtTaCQS03l-42" target="2bhRD3LpHELtTaCQS03l-50" edge="1">
          <mxGeometry y="10" relative="1" as="geometry">
            <mxPoint as="offset" />
            <mxPoint x="950" y="482.5" as="sourcePoint" />
            <mxPoint x="950" y="532.5" as="targetPoint" />
          </mxGeometry>
        </mxCell>
        <mxCell id="2bhRD3LpHELtTaCQS03l-49" value="Yes" style="edgeLabel;html=1;align=center;verticalAlign=middle;resizable=0;points=[];" parent="2bhRD3LpHELtTaCQS03l-48" vertex="1" connectable="0">
          <mxGeometry x="0.1969" relative="1" as="geometry">
            <mxPoint x="-9" y="-9" as="offset" />
          </mxGeometry>
        </mxCell>
        <mxCell id="2bhRD3LpHELtTaCQS03l-50" value="Store inside the container" style="rounded=1;whiteSpace=wrap;html=1;fontSize=12;glass=0;strokeWidth=1;shadow=0;" parent="1" vertex="1">
          <mxGeometry x="610" y="297.5" width="120" height="40" as="geometry" />
        </mxCell>
        <mxCell id="RdMNoqMEYeU6BJcLJQy6-2" value="" style="edgeStyle=orthogonalEdgeStyle;rounded=0;html=1;jettySize=auto;orthogonalLoop=1;fontSize=11;endArrow=block;endFill=0;endSize=8;strokeWidth=1;shadow=0;labelBackgroundColor=none;entryX=0;entryY=0.5;entryDx=0;entryDy=0;exitX=1;exitY=0.5;exitDx=0;exitDy=0;" parent="1" source="2bhRD3LpHELtTaCQS03l-45" target="2bhRD3LpHELtTaCQS03l-42" edge="1">
          <mxGeometry y="10" relative="1" as="geometry">
            <mxPoint as="offset" />
            <mxPoint x="240" y="250" as="sourcePoint" />
            <mxPoint x="240" y="310" as="targetPoint" />
          </mxGeometry>
        </mxCell>
        <mxCell id="RdMNoqMEYeU6BJcLJQy6-3" value="" style="edgeStyle=orthogonalEdgeStyle;rounded=0;html=1;jettySize=auto;orthogonalLoop=1;fontSize=11;endArrow=block;endFill=0;endSize=8;strokeWidth=1;shadow=0;labelBackgroundColor=none;entryX=1;entryY=0.5;entryDx=0;entryDy=0;exitX=0.5;exitY=0;exitDx=0;exitDy=0;" parent="1" source="2bhRD3LpHELtTaCQS03l-42" target="2bhRD3LpHELtTaCQS03l-41" edge="1">
          <mxGeometry y="10" relative="1" as="geometry">
            <mxPoint as="offset" />
            <mxPoint x="250" y="260" as="sourcePoint" />
            <mxPoint x="250" y="320" as="targetPoint" />
          </mxGeometry>
        </mxCell>
        <mxCell id="RdMNoqMEYeU6BJcLJQy6-4" value="No" style="edgeLabel;html=1;align=center;verticalAlign=middle;resizable=0;points=[];" parent="RdMNoqMEYeU6BJcLJQy6-3" vertex="1" connectable="0">
          <mxGeometry x="0.0747" y="5" relative="1" as="geometry">
            <mxPoint x="-16" y="5" as="offset" />
          </mxGeometry>
        </mxCell>
        <mxCell id="RdMNoqMEYeU6BJcLJQy6-5" value="" style="edgeStyle=orthogonalEdgeStyle;rounded=0;html=1;jettySize=auto;orthogonalLoop=1;fontSize=11;endArrow=block;endFill=0;endSize=8;strokeWidth=1;shadow=0;labelBackgroundColor=none;entryX=0.5;entryY=0;entryDx=0;entryDy=0;exitX=0.5;exitY=1;exitDx=0;exitDy=0;" parent="1" source="2bhRD3LpHELtTaCQS03l-50" target="2bhRD3LpHELtTaCQS03l-16" edge="1">
          <mxGeometry y="10" relative="1" as="geometry">
            <mxPoint as="offset" />
            <mxPoint x="680" y="340" as="sourcePoint" />
            <mxPoint x="620" y="328" as="targetPoint" />
          </mxGeometry>
        </mxCell>
      </root>
    </mxGraphModel>
  </diagram>
  <diagram id="UkIGa5sfNdh2C_Sof-Yj" name="Page-4">
    <mxGraphModel dx="1290" dy="534" grid="1" gridSize="10" guides="1" tooltips="1" connect="1" arrows="1" fold="1" page="1" pageScale="1" pageWidth="827" pageHeight="1169" math="0" shadow="0">
      <root>
        <mxCell id="0" />
        <mxCell id="1" parent="0" />
        <mxCell id="i6LvHQAK09gD4GYbeg8K-7" value="Start" style="ellipse;whiteSpace=wrap;html=1;aspect=fixed;" parent="1" vertex="1">
          <mxGeometry x="190" y="60" width="80" height="80" as="geometry" />
        </mxCell>
        <mxCell id="i6LvHQAK09gD4GYbeg8K-8" value="" style="rounded=0;html=1;jettySize=auto;orthogonalLoop=1;fontSize=11;endArrow=block;endFill=0;endSize=8;strokeWidth=1;shadow=0;labelBackgroundColor=none;edgeStyle=orthogonalEdgeStyle;exitX=0.5;exitY=1;exitDx=0;exitDy=0;entryX=0.5;entryY=0;entryDx=0;entryDy=0;" parent="1" source="i6LvHQAK09gD4GYbeg8K-7" target="i6LvHQAK09gD4GYbeg8K-54" edge="1">
          <mxGeometry relative="1" as="geometry">
            <mxPoint x="240" y="270" as="sourcePoint" />
            <mxPoint x="230" y="220" as="targetPoint" />
          </mxGeometry>
        </mxCell>
        <mxCell id="i6LvHQAK09gD4GYbeg8K-16" value="End" style="ellipse;whiteSpace=wrap;html=1;aspect=fixed;" parent="1" vertex="1">
          <mxGeometry x="830" y="480" width="80" height="80" as="geometry" />
        </mxCell>
        <mxCell id="i6LvHQAK09gD4GYbeg8K-17" value="" style="edgeStyle=orthogonalEdgeStyle;rounded=0;html=1;jettySize=auto;orthogonalLoop=1;fontSize=11;endArrow=block;endFill=0;endSize=8;strokeWidth=1;shadow=0;labelBackgroundColor=none;exitX=0.5;exitY=1;exitDx=0;exitDy=0;entryX=0.5;entryY=0;entryDx=0;entryDy=0;" parent="1" source="i6LvHQAK09gD4GYbeg8K-65" target="i6LvHQAK09gD4GYbeg8K-16" edge="1">
          <mxGeometry y="10" relative="1" as="geometry">
            <mxPoint as="offset" />
            <mxPoint x="65" y="730" as="sourcePoint" />
            <mxPoint x="140" y="695" as="targetPoint" />
          </mxGeometry>
        </mxCell>
        <mxCell id="i6LvHQAK09gD4GYbeg8K-54" value="Quick Sorting" style="rounded=1;whiteSpace=wrap;html=1;fontSize=12;glass=0;strokeWidth=1;shadow=0;" parent="1" vertex="1">
          <mxGeometry x="170" y="230" width="120" height="40" as="geometry" />
        </mxCell>
        <mxCell id="i6LvHQAK09gD4GYbeg8K-55" value="" style="edgeStyle=orthogonalEdgeStyle;rounded=0;html=1;jettySize=auto;orthogonalLoop=1;fontSize=11;endArrow=block;endFill=0;endSize=8;strokeWidth=1;shadow=0;labelBackgroundColor=none;exitX=1;exitY=0.5;exitDx=0;exitDy=0;entryX=0;entryY=0.5;entryDx=0;entryDy=0;" parent="1" source="i6LvHQAK09gD4GYbeg8K-54" target="i6LvHQAK09gD4GYbeg8K-56" edge="1">
          <mxGeometry y="10" relative="1" as="geometry">
            <mxPoint as="offset" />
            <mxPoint x="520" y="762.8" as="sourcePoint" />
            <mxPoint x="570" y="762.8" as="targetPoint" />
          </mxGeometry>
        </mxCell>
        <mxCell id="i6LvHQAK09gD4GYbeg8K-56" value="View all cases" style="rounded=1;whiteSpace=wrap;html=1;fontSize=12;glass=0;strokeWidth=1;shadow=0;" parent="1" vertex="1">
          <mxGeometry x="360" y="230" width="120" height="40" as="geometry" />
        </mxCell>
        <mxCell id="i6LvHQAK09gD4GYbeg8K-57" value="Want to search &lt;br&gt;any specific information?" style="rhombus;whiteSpace=wrap;html=1;shadow=0;fontFamily=Helvetica;fontSize=12;align=center;strokeWidth=1;spacing=6;spacingTop=-4;" parent="1" vertex="1">
          <mxGeometry x="550" y="215" width="170" height="70" as="geometry" />
        </mxCell>
        <mxCell id="i6LvHQAK09gD4GYbeg8K-58" value="" style="edgeStyle=orthogonalEdgeStyle;rounded=0;html=1;jettySize=auto;orthogonalLoop=1;fontSize=11;endArrow=block;endFill=0;endSize=8;strokeWidth=1;shadow=0;labelBackgroundColor=none;exitX=1;exitY=0.5;exitDx=0;exitDy=0;entryX=0;entryY=0.5;entryDx=0;entryDy=0;" parent="1" source="i6LvHQAK09gD4GYbeg8K-56" target="i6LvHQAK09gD4GYbeg8K-57" edge="1">
          <mxGeometry y="10" relative="1" as="geometry">
            <mxPoint as="offset" />
            <mxPoint x="690" y="762.81" as="sourcePoint" />
            <mxPoint x="740" y="762.81" as="targetPoint" />
          </mxGeometry>
        </mxCell>
        <mxCell id="i6LvHQAK09gD4GYbeg8K-59" value="" style="edgeStyle=orthogonalEdgeStyle;rounded=0;html=1;jettySize=auto;orthogonalLoop=1;fontSize=11;endArrow=block;endFill=0;endSize=8;strokeWidth=1;shadow=0;labelBackgroundColor=none;exitX=0.5;exitY=1;exitDx=0;exitDy=0;entryX=0.5;entryY=1;entryDx=0;entryDy=0;" parent="1" source="i6LvHQAK09gD4GYbeg8K-57" target="i6LvHQAK09gD4GYbeg8K-56" edge="1">
          <mxGeometry y="10" relative="1" as="geometry">
            <mxPoint as="offset" />
            <mxPoint x="680" y="861.5" as="sourcePoint" />
            <mxPoint x="730" y="861.5" as="targetPoint" />
          </mxGeometry>
        </mxCell>
        <mxCell id="i6LvHQAK09gD4GYbeg8K-60" value="No" style="edgeLabel;html=1;align=center;verticalAlign=middle;resizable=0;points=[];" parent="i6LvHQAK09gD4GYbeg8K-59" vertex="1" connectable="0">
          <mxGeometry x="-0.1394" y="-1" relative="1" as="geometry">
            <mxPoint x="-7" y="-7" as="offset" />
          </mxGeometry>
        </mxCell>
        <mxCell id="i6LvHQAK09gD4GYbeg8K-61" value="" style="edgeStyle=orthogonalEdgeStyle;rounded=0;html=1;jettySize=auto;orthogonalLoop=1;fontSize=11;endArrow=block;endFill=0;endSize=8;strokeWidth=1;shadow=0;labelBackgroundColor=none;exitX=1;exitY=0.5;exitDx=0;exitDy=0;entryX=0;entryY=0.5;entryDx=0;entryDy=0;" parent="1" source="i6LvHQAK09gD4GYbeg8K-57" target="i6LvHQAK09gD4GYbeg8K-63" edge="1">
          <mxGeometry y="10" relative="1" as="geometry">
            <mxPoint as="offset" />
            <mxPoint x="920" y="762.72" as="sourcePoint" />
            <mxPoint x="930" y="762.5" as="targetPoint" />
          </mxGeometry>
        </mxCell>
        <mxCell id="i6LvHQAK09gD4GYbeg8K-62" value="Yes" style="edgeLabel;html=1;align=center;verticalAlign=middle;resizable=0;points=[];" parent="i6LvHQAK09gD4GYbeg8K-61" vertex="1" connectable="0">
          <mxGeometry x="-0.1055" relative="1" as="geometry">
            <mxPoint x="-4" y="-8" as="offset" />
          </mxGeometry>
        </mxCell>
        <mxCell id="i6LvHQAK09gD4GYbeg8K-63" value="Binary Search Tree Algorithm" style="rounded=1;whiteSpace=wrap;html=1;fontSize=12;glass=0;strokeWidth=1;shadow=0;" parent="1" vertex="1">
          <mxGeometry x="810" y="230" width="120" height="40" as="geometry" />
        </mxCell>
        <mxCell id="i6LvHQAK09gD4GYbeg8K-64" value="" style="edgeStyle=orthogonalEdgeStyle;rounded=0;html=1;jettySize=auto;orthogonalLoop=1;fontSize=11;endArrow=block;endFill=0;endSize=8;strokeWidth=1;shadow=0;labelBackgroundColor=none;exitX=0.5;exitY=1;exitDx=0;exitDy=0;entryX=0.5;entryY=0;entryDx=0;entryDy=0;" parent="1" source="i6LvHQAK09gD4GYbeg8K-63" target="i6LvHQAK09gD4GYbeg8K-65" edge="1">
          <mxGeometry y="10" relative="1" as="geometry">
            <mxPoint as="offset" />
            <mxPoint x="1090" y="762.58" as="sourcePoint" />
            <mxPoint x="1110" y="762.5" as="targetPoint" />
          </mxGeometry>
        </mxCell>
        <mxCell id="i6LvHQAK09gD4GYbeg8K-65" value="Show Specific Dengue Cases" style="rounded=1;whiteSpace=wrap;html=1;fontSize=12;glass=0;strokeWidth=1;shadow=0;" parent="1" vertex="1">
          <mxGeometry x="810" y="360" width="120" height="40" as="geometry" />
        </mxCell>
      </root>
    </mxGraphModel>
  </diagram>
</mxfile>
